<?xml version="1.0" encoding="utf-8" standalone="no"?>
<!DOCTYPE svg PUBLIC "-//W3C//DTD SVG 1.1//EN"
  "http://www.w3.org/Graphics/SVG/1.1/DTD/svg11.dtd">
<svg xmlns:xlink="http://www.w3.org/1999/xlink" width="460.8pt" height="345.6pt" viewBox="0 0 460.8 345.6" xmlns="http://www.w3.org/2000/svg" version="1.1">
 <metadata>
  <rdf:RDF xmlns:dc="http://purl.org/dc/elements/1.1/" xmlns:cc="http://creativecommons.org/ns#" xmlns:rdf="http://www.w3.org/1999/02/22-rdf-syntax-ns#">
   <cc:Work>
    <dc:type rdf:resource="http://purl.org/dc/dcmitype/StillImage"/>
    <dc:date>2023-06-19T17:58:08.461360</dc:date>
    <dc:format>image/svg+xml</dc:format>
    <dc:creator>
     <cc:Agent>
      <dc:title>Matplotlib v3.7.1, https://matplotlib.org/</dc:title>
     </cc:Agent>
    </dc:creator>
   </cc:Work>
  </rdf:RDF>
 </metadata>
 <defs>
  <style type="text/css">*{stroke-linejoin: round; stroke-linecap: butt}</style>
 </defs>
 <g id="figure_1">
  <g id="patch_1">
   <path d="M 0 345.6 
L 460.8 345.6 
L 460.8 0 
L 0 0 
z
" style="fill: #ffffff"/>
  </g>
  <g id="axes_1">
   <g id="patch_2">
    <path d="M 57.6 307.584 
L 414.72 307.584 
L 414.72 41.472 
L 57.6 41.472 
z
" style="fill: #ffffff"/>
   </g>
   <g id="matplotlib.axis_1">
    <g id="xtick_1">
     <g id="line2d_1">
      <defs>
       <path id="mf2ecc5b0ee" d="M 0 0 
L 0 3.5 
" style="stroke: #000000; stroke-width: 0.8"/>
      </defs>
      <g>
       <use xlink:href="#mf2ecc5b0ee" x="57.6" y="307.584" style="stroke: #000000; stroke-width: 0.8"/>
      </g>
     </g>
     <g id="text_1">
      <!-- 0.0 -->
      <g transform="translate(49.648438 322.182437) scale(0.1 -0.1)">
       <defs>
        <path id="DejaVuSans-30" d="M 2034 4250 
Q 1547 4250 1301 3770 
Q 1056 3291 1056 2328 
Q 1056 1369 1301 889 
Q 1547 409 2034 409 
Q 2525 409 2770 889 
Q 3016 1369 3016 2328 
Q 3016 3291 2770 3770 
Q 2525 4250 2034 4250 
z
M 2034 4750 
Q 2819 4750 3233 4129 
Q 3647 3509 3647 2328 
Q 3647 1150 3233 529 
Q 2819 -91 2034 -91 
Q 1250 -91 836 529 
Q 422 1150 422 2328 
Q 422 3509 836 4129 
Q 1250 4750 2034 4750 
z
" transform="scale(0.015625)"/>
        <path id="DejaVuSans-2e" d="M 684 794 
L 1344 794 
L 1344 0 
L 684 0 
L 684 794 
z
" transform="scale(0.015625)"/>
       </defs>
       <use xlink:href="#DejaVuSans-30"/>
       <use xlink:href="#DejaVuSans-2e" x="63.623047"/>
       <use xlink:href="#DejaVuSans-30" x="95.410156"/>
      </g>
     </g>
    </g>
    <g id="xtick_2">
     <g id="line2d_2">
      <g>
       <use xlink:href="#mf2ecc5b0ee" x="129.024" y="307.584" style="stroke: #000000; stroke-width: 0.8"/>
      </g>
     </g>
     <g id="text_2">
      <!-- 0.2 -->
      <g transform="translate(121.072438 322.182437) scale(0.1 -0.1)">
       <defs>
        <path id="DejaVuSans-32" d="M 1228 531 
L 3431 531 
L 3431 0 
L 469 0 
L 469 531 
Q 828 903 1448 1529 
Q 2069 2156 2228 2338 
Q 2531 2678 2651 2914 
Q 2772 3150 2772 3378 
Q 2772 3750 2511 3984 
Q 2250 4219 1831 4219 
Q 1534 4219 1204 4116 
Q 875 4013 500 3803 
L 500 4441 
Q 881 4594 1212 4672 
Q 1544 4750 1819 4750 
Q 2544 4750 2975 4387 
Q 3406 4025 3406 3419 
Q 3406 3131 3298 2873 
Q 3191 2616 2906 2266 
Q 2828 2175 2409 1742 
Q 1991 1309 1228 531 
z
" transform="scale(0.015625)"/>
       </defs>
       <use xlink:href="#DejaVuSans-30"/>
       <use xlink:href="#DejaVuSans-2e" x="63.623047"/>
       <use xlink:href="#DejaVuSans-32" x="95.410156"/>
      </g>
     </g>
    </g>
    <g id="xtick_3">
     <g id="line2d_3">
      <g>
       <use xlink:href="#mf2ecc5b0ee" x="200.448" y="307.584" style="stroke: #000000; stroke-width: 0.8"/>
      </g>
     </g>
     <g id="text_3">
      <!-- 0.4 -->
      <g transform="translate(192.496438 322.182437) scale(0.1 -0.1)">
       <defs>
        <path id="DejaVuSans-34" d="M 2419 4116 
L 825 1625 
L 2419 1625 
L 2419 4116 
z
M 2253 4666 
L 3047 4666 
L 3047 1625 
L 3713 1625 
L 3713 1100 
L 3047 1100 
L 3047 0 
L 2419 0 
L 2419 1100 
L 313 1100 
L 313 1709 
L 2253 4666 
z
" transform="scale(0.015625)"/>
       </defs>
       <use xlink:href="#DejaVuSans-30"/>
       <use xlink:href="#DejaVuSans-2e" x="63.623047"/>
       <use xlink:href="#DejaVuSans-34" x="95.410156"/>
      </g>
     </g>
    </g>
    <g id="xtick_4">
     <g id="line2d_4">
      <g>
       <use xlink:href="#mf2ecc5b0ee" x="271.872" y="307.584" style="stroke: #000000; stroke-width: 0.8"/>
      </g>
     </g>
     <g id="text_4">
      <!-- 0.6 -->
      <g transform="translate(263.920438 322.182437) scale(0.1 -0.1)">
       <defs>
        <path id="DejaVuSans-36" d="M 2113 2584 
Q 1688 2584 1439 2293 
Q 1191 2003 1191 1497 
Q 1191 994 1439 701 
Q 1688 409 2113 409 
Q 2538 409 2786 701 
Q 3034 994 3034 1497 
Q 3034 2003 2786 2293 
Q 2538 2584 2113 2584 
z
M 3366 4563 
L 3366 3988 
Q 3128 4100 2886 4159 
Q 2644 4219 2406 4219 
Q 1781 4219 1451 3797 
Q 1122 3375 1075 2522 
Q 1259 2794 1537 2939 
Q 1816 3084 2150 3084 
Q 2853 3084 3261 2657 
Q 3669 2231 3669 1497 
Q 3669 778 3244 343 
Q 2819 -91 2113 -91 
Q 1303 -91 875 529 
Q 447 1150 447 2328 
Q 447 3434 972 4092 
Q 1497 4750 2381 4750 
Q 2619 4750 2861 4703 
Q 3103 4656 3366 4563 
z
" transform="scale(0.015625)"/>
       </defs>
       <use xlink:href="#DejaVuSans-30"/>
       <use xlink:href="#DejaVuSans-2e" x="63.623047"/>
       <use xlink:href="#DejaVuSans-36" x="95.410156"/>
      </g>
     </g>
    </g>
    <g id="xtick_5">
     <g id="line2d_5">
      <g>
       <use xlink:href="#mf2ecc5b0ee" x="343.296" y="307.584" style="stroke: #000000; stroke-width: 0.8"/>
      </g>
     </g>
     <g id="text_5">
      <!-- 0.8 -->
      <g transform="translate(335.344438 322.182437) scale(0.1 -0.1)">
       <defs>
        <path id="DejaVuSans-38" d="M 2034 2216 
Q 1584 2216 1326 1975 
Q 1069 1734 1069 1313 
Q 1069 891 1326 650 
Q 1584 409 2034 409 
Q 2484 409 2743 651 
Q 3003 894 3003 1313 
Q 3003 1734 2745 1975 
Q 2488 2216 2034 2216 
z
M 1403 2484 
Q 997 2584 770 2862 
Q 544 3141 544 3541 
Q 544 4100 942 4425 
Q 1341 4750 2034 4750 
Q 2731 4750 3128 4425 
Q 3525 4100 3525 3541 
Q 3525 3141 3298 2862 
Q 3072 2584 2669 2484 
Q 3125 2378 3379 2068 
Q 3634 1759 3634 1313 
Q 3634 634 3220 271 
Q 2806 -91 2034 -91 
Q 1263 -91 848 271 
Q 434 634 434 1313 
Q 434 1759 690 2068 
Q 947 2378 1403 2484 
z
M 1172 3481 
Q 1172 3119 1398 2916 
Q 1625 2713 2034 2713 
Q 2441 2713 2670 2916 
Q 2900 3119 2900 3481 
Q 2900 3844 2670 4047 
Q 2441 4250 2034 4250 
Q 1625 4250 1398 4047 
Q 1172 3844 1172 3481 
z
" transform="scale(0.015625)"/>
       </defs>
       <use xlink:href="#DejaVuSans-30"/>
       <use xlink:href="#DejaVuSans-2e" x="63.623047"/>
       <use xlink:href="#DejaVuSans-38" x="95.410156"/>
      </g>
     </g>
    </g>
    <g id="xtick_6">
     <g id="line2d_6">
      <g>
       <use xlink:href="#mf2ecc5b0ee" x="414.72" y="307.584" style="stroke: #000000; stroke-width: 0.8"/>
      </g>
     </g>
     <g id="text_6">
      <!-- 1.0 -->
      <g transform="translate(406.768438 322.182437) scale(0.1 -0.1)">
       <defs>
        <path id="DejaVuSans-31" d="M 794 531 
L 1825 531 
L 1825 4091 
L 703 3866 
L 703 4441 
L 1819 4666 
L 2450 4666 
L 2450 531 
L 3481 531 
L 3481 0 
L 794 0 
L 794 531 
z
" transform="scale(0.015625)"/>
       </defs>
       <use xlink:href="#DejaVuSans-31"/>
       <use xlink:href="#DejaVuSans-2e" x="63.623047"/>
       <use xlink:href="#DejaVuSans-30" x="95.410156"/>
      </g>
     </g>
    </g>
    <g id="text_7">
     <!-- $|0\rangle$ -->
     <g transform="translate(229.31 335.962125) scale(0.1 -0.1)">
      <defs>
       <path id="DejaVuSans-7c" d="M 1344 4891 
L 1344 -1509 
L 813 -1509 
L 813 4891 
L 1344 4891 
z
" transform="scale(0.015625)"/>
       <path id="DejaVuSans-27e9" d="M 1925 2006 
L 1044 -844 
L 513 -844 
L 1394 2006 
L 513 4856 
L 1044 4856 
L 1925 2006 
z
" transform="scale(0.015625)"/>
      </defs>
      <use xlink:href="#DejaVuSans-7c" transform="translate(0 0.578125)"/>
      <use xlink:href="#DejaVuSans-30" transform="translate(33.691406 0.578125)"/>
      <use xlink:href="#DejaVuSans-27e9" transform="translate(97.314453 0.578125)"/>
     </g>
    </g>
   </g>
   <g id="matplotlib.axis_2">
    <g id="ytick_1">
     <g id="line2d_7">
      <defs>
       <path id="ma892dabbc7" d="M 0 0 
L -3.5 0 
" style="stroke: #000000; stroke-width: 0.8"/>
      </defs>
      <g>
       <use xlink:href="#ma892dabbc7" x="57.6" y="307.584" style="stroke: #000000; stroke-width: 0.8"/>
      </g>
     </g>
     <g id="text_8">
      <!-- 0.0 -->
      <g transform="translate(34.696875 311.383219) scale(0.1 -0.1)">
       <use xlink:href="#DejaVuSans-30"/>
       <use xlink:href="#DejaVuSans-2e" x="63.623047"/>
       <use xlink:href="#DejaVuSans-30" x="95.410156"/>
      </g>
     </g>
    </g>
    <g id="ytick_2">
     <g id="line2d_8">
      <g>
       <use xlink:href="#ma892dabbc7" x="57.6" y="254.3616" style="stroke: #000000; stroke-width: 0.8"/>
      </g>
     </g>
     <g id="text_9">
      <!-- 0.2 -->
      <g transform="translate(34.696875 258.160819) scale(0.1 -0.1)">
       <use xlink:href="#DejaVuSans-30"/>
       <use xlink:href="#DejaVuSans-2e" x="63.623047"/>
       <use xlink:href="#DejaVuSans-32" x="95.410156"/>
      </g>
     </g>
    </g>
    <g id="ytick_3">
     <g id="line2d_9">
      <g>
       <use xlink:href="#ma892dabbc7" x="57.6" y="201.1392" style="stroke: #000000; stroke-width: 0.8"/>
      </g>
     </g>
     <g id="text_10">
      <!-- 0.4 -->
      <g transform="translate(34.696875 204.938419) scale(0.1 -0.1)">
       <use xlink:href="#DejaVuSans-30"/>
       <use xlink:href="#DejaVuSans-2e" x="63.623047"/>
       <use xlink:href="#DejaVuSans-34" x="95.410156"/>
      </g>
     </g>
    </g>
    <g id="ytick_4">
     <g id="line2d_10">
      <g>
       <use xlink:href="#ma892dabbc7" x="57.6" y="147.9168" style="stroke: #000000; stroke-width: 0.8"/>
      </g>
     </g>
     <g id="text_11">
      <!-- 0.6 -->
      <g transform="translate(34.696875 151.716019) scale(0.1 -0.1)">
       <use xlink:href="#DejaVuSans-30"/>
       <use xlink:href="#DejaVuSans-2e" x="63.623047"/>
       <use xlink:href="#DejaVuSans-36" x="95.410156"/>
      </g>
     </g>
    </g>
    <g id="ytick_5">
     <g id="line2d_11">
      <g>
       <use xlink:href="#ma892dabbc7" x="57.6" y="94.6944" style="stroke: #000000; stroke-width: 0.8"/>
      </g>
     </g>
     <g id="text_12">
      <!-- 0.8 -->
      <g transform="translate(34.696875 98.493619) scale(0.1 -0.1)">
       <use xlink:href="#DejaVuSans-30"/>
       <use xlink:href="#DejaVuSans-2e" x="63.623047"/>
       <use xlink:href="#DejaVuSans-38" x="95.410156"/>
      </g>
     </g>
    </g>
    <g id="ytick_6">
     <g id="line2d_12">
      <g>
       <use xlink:href="#ma892dabbc7" x="57.6" y="41.472" style="stroke: #000000; stroke-width: 0.8"/>
      </g>
     </g>
     <g id="text_13">
      <!-- 1.0 -->
      <g transform="translate(34.696875 45.271219) scale(0.1 -0.1)">
       <use xlink:href="#DejaVuSans-31"/>
       <use xlink:href="#DejaVuSans-2e" x="63.623047"/>
       <use xlink:href="#DejaVuSans-30" x="95.410156"/>
      </g>
     </g>
    </g>
    <g id="text_14">
     <!-- $|1\rangle$ -->
     <g transform="translate(28.296875 181.378) rotate(-90) scale(0.1 -0.1)">
      <use xlink:href="#DejaVuSans-7c" transform="translate(0 0.578125)"/>
      <use xlink:href="#DejaVuSans-31" transform="translate(33.691406 0.578125)"/>
      <use xlink:href="#DejaVuSans-27e9" transform="translate(97.314453 0.578125)"/>
     </g>
    </g>
   </g>
   <g id="line2d_13">
    <path d="M 57.6 307.584 
L 61.207273 304.896 
L 64.814545 302.208 
L 68.421818 299.52 
L 72.029091 296.832 
L 75.636364 294.144 
L 79.243636 291.456 
L 82.850909 288.768 
L 86.458182 286.08 
L 90.065455 283.392 
L 93.672727 280.704 
L 97.28 278.016 
L 100.887273 275.328 
L 104.494545 272.64 
L 108.101818 269.952 
L 111.709091 267.264 
L 115.316364 264.576 
L 118.923636 261.888 
L 122.530909 259.2 
L 126.138182 256.512 
L 129.745455 253.824 
L 133.352727 251.136 
L 136.96 248.448 
L 140.567273 245.76 
L 144.174545 243.072 
L 147.781818 240.384 
L 151.389091 237.696 
L 154.996364 235.008 
L 158.603636 232.32 
L 162.210909 229.632 
L 165.818182 226.944 
L 169.425455 224.256 
L 173.032727 221.568 
L 176.64 218.88 
L 180.247273 216.192 
L 183.854545 213.504 
L 187.461818 210.816 
L 191.069091 208.128 
L 194.676364 205.44 
L 198.283636 202.752 
L 201.890909 200.064 
L 205.498182 197.376 
L 209.105455 194.688 
L 212.712727 192 
L 216.32 189.312 
L 219.927273 186.624 
L 223.534545 183.936 
L 227.141818 181.248 
L 230.749091 178.56 
L 234.356364 175.872 
L 237.963636 173.184 
L 241.570909 170.496 
L 245.178182 167.808 
L 248.785455 165.12 
L 252.392727 162.432 
L 256 159.744 
L 259.607273 157.056 
L 263.214545 154.368 
L 266.821818 151.68 
L 270.429091 148.992 
L 274.036364 146.304 
L 277.643636 143.616 
L 281.250909 140.928 
L 284.858182 138.24 
L 288.465455 135.552 
L 292.072727 132.864 
L 295.68 130.176 
L 299.287273 127.488 
L 302.894545 124.8 
L 306.501818 122.112 
" clip-path="url(#p898dc3440b)" style="fill: none; stroke: #800080; stroke-width: 3; stroke-linecap: square"/>
   </g>
   <g id="line2d_14">
    <path d="M 306.501818 307.584 
L 306.501818 304.896 
L 306.501818 302.208 
L 306.501818 299.52 
L 306.501818 296.832 
L 306.501818 294.144 
L 306.501818 291.456 
L 306.501818 288.768 
L 306.501818 286.08 
L 306.501818 283.392 
L 306.501818 280.704 
L 306.501818 278.016 
L 306.501818 275.328 
L 306.501818 272.64 
L 306.501818 269.952 
L 306.501818 267.264 
L 306.501818 264.576 
L 306.501818 261.888 
L 306.501818 259.2 
L 306.501818 256.512 
L 306.501818 253.824 
L 306.501818 251.136 
L 306.501818 248.448 
L 306.501818 245.76 
L 306.501818 243.072 
L 306.501818 240.384 
L 306.501818 237.696 
L 306.501818 235.008 
L 306.501818 232.32 
L 306.501818 229.632 
L 306.501818 226.944 
L 306.501818 224.256 
L 306.501818 221.568 
L 306.501818 218.88 
L 306.501818 216.192 
L 306.501818 213.504 
L 306.501818 210.816 
L 306.501818 208.128 
L 306.501818 205.44 
L 306.501818 202.752 
L 306.501818 200.064 
L 306.501818 197.376 
L 306.501818 194.688 
L 306.501818 192 
L 306.501818 189.312 
L 306.501818 186.624 
L 306.501818 183.936 
L 306.501818 181.248 
L 306.501818 178.56 
L 306.501818 175.872 
L 306.501818 173.184 
L 306.501818 170.496 
L 306.501818 167.808 
L 306.501818 165.12 
L 306.501818 162.432 
L 306.501818 159.744 
L 306.501818 157.056 
L 306.501818 154.368 
L 306.501818 151.68 
L 306.501818 148.992 
L 306.501818 146.304 
L 306.501818 143.616 
L 306.501818 140.928 
L 306.501818 138.24 
L 306.501818 135.552 
L 306.501818 132.864 
L 306.501818 130.176 
L 306.501818 127.488 
L 306.501818 124.8 
L 306.501818 122.112 
" clip-path="url(#p898dc3440b)" style="fill: none; stroke-dasharray: 1.5,2.475; stroke-dashoffset: 0; stroke: #ff0000; stroke-width: 1.5"/>
   </g>
   <g id="line2d_15">
    <path d="M 57.6 122.112 
L 61.207273 122.112 
L 64.814545 122.112 
L 68.421818 122.112 
L 72.029091 122.112 
L 75.636364 122.112 
L 79.243636 122.112 
L 82.850909 122.112 
L 86.458182 122.112 
L 90.065455 122.112 
L 93.672727 122.112 
L 97.28 122.112 
L 100.887273 122.112 
L 104.494545 122.112 
L 108.101818 122.112 
L 111.709091 122.112 
L 115.316364 122.112 
L 118.923636 122.112 
L 122.530909 122.112 
L 126.138182 122.112 
L 129.745455 122.112 
L 133.352727 122.112 
L 136.96 122.112 
L 140.567273 122.112 
L 144.174545 122.112 
L 147.781818 122.112 
L 151.389091 122.112 
L 154.996364 122.112 
L 158.603636 122.112 
L 162.210909 122.112 
L 165.818182 122.112 
L 169.425455 122.112 
L 173.032727 122.112 
L 176.64 122.112 
L 180.247273 122.112 
L 183.854545 122.112 
L 187.461818 122.112 
L 191.069091 122.112 
L 194.676364 122.112 
L 198.283636 122.112 
L 201.890909 122.112 
L 205.498182 122.112 
L 209.105455 122.112 
L 212.712727 122.112 
L 216.32 122.112 
L 219.927273 122.112 
L 223.534545 122.112 
L 227.141818 122.112 
L 230.749091 122.112 
L 234.356364 122.112 
L 237.963636 122.112 
L 241.570909 122.112 
L 245.178182 122.112 
L 248.785455 122.112 
L 252.392727 122.112 
L 256 122.112 
L 259.607273 122.112 
L 263.214545 122.112 
L 266.821818 122.112 
L 270.429091 122.112 
L 274.036364 122.112 
L 277.643636 122.112 
L 281.250909 122.112 
L 284.858182 122.112 
L 288.465455 122.112 
L 292.072727 122.112 
L 295.68 122.112 
L 299.287273 122.112 
L 302.894545 122.112 
L 306.501818 122.112 
" clip-path="url(#p898dc3440b)" style="fill: none; stroke-dasharray: 1.5,2.475; stroke-dashoffset: 0; stroke: #0000ff; stroke-width: 1.5"/>
   </g>
   <g id="patch_3">
    <path d="M 57.6 307.584 
L 57.6 41.472 
" style="fill: none; stroke: #000000; stroke-width: 0.8; stroke-linejoin: miter; stroke-linecap: square"/>
   </g>
   <g id="patch_4">
    <path d="M 414.72 307.584 
L 414.72 41.472 
" style="fill: none; stroke: #000000; stroke-width: 0.8; stroke-linejoin: miter; stroke-linecap: square"/>
   </g>
   <g id="patch_5">
    <path d="M 57.6 307.584 
L 414.72 307.584 
" style="fill: none; stroke: #000000; stroke-width: 0.8; stroke-linejoin: miter; stroke-linecap: square"/>
   </g>
   <g id="patch_6">
    <path d="M 57.6 41.472 
L 414.72 41.472 
" style="fill: none; stroke: #000000; stroke-width: 0.8; stroke-linejoin: miter; stroke-linecap: square"/>
   </g>
   <g id="legend_1">
    <g id="patch_7">
     <path d="M 322.22 94.772 
L 407.72 94.772 
Q 409.72 94.772 409.72 92.772 
L 409.72 48.472 
Q 409.72 46.472 407.72 46.472 
L 322.22 46.472 
Q 320.22 46.472 320.22 48.472 
L 320.22 92.772 
Q 320.22 94.772 322.22 94.772 
z
" style="fill: #ffffff; opacity: 0.8; stroke: #cccccc; stroke-linejoin: miter"/>
    </g>
    <g id="line2d_16">
     <path d="M 324.22 54.672 
L 334.22 54.672 
L 344.22 54.672 
" style="fill: none; stroke: #800080; stroke-width: 3; stroke-linecap: square"/>
    </g>
    <g id="text_15">
     <!-- $|\psi\rangle$ -->
     <g transform="translate(352.22 58.172) scale(0.1 -0.1)">
      <defs>
       <path id="DejaVuSans-Oblique-3c8" d="M 1591 -78 
Q 891 38 616 341 
Q 278 713 425 1472 
L 819 3500 
L 1400 3500 
L 1009 1494 
Q 900 922 1119 684 
Q 1313 478 1691 434 
L 2284 3500 
L 2856 3500 
L 2263 438 
Q 2681 481 2928 688 
Q 3247 950 3353 1497 
L 3741 3500 
L 4322 3500 
L 3928 1475 
Q 3775 688 3300 344 
Q 2872 34 2163 -75 
L 1919 -1331 
L 1347 -1331 
L 1591 -78 
z
" transform="scale(0.015625)"/>
      </defs>
      <use xlink:href="#DejaVuSans-7c" transform="translate(0 0.578125)"/>
      <use xlink:href="#DejaVuSans-Oblique-3c8" transform="translate(33.691406 0.578125)"/>
      <use xlink:href="#DejaVuSans-27e9" transform="translate(99.658203 0.578125)"/>
     </g>
    </g>
    <g id="line2d_17">
     <path d="M 324.22 69.772 
L 334.22 69.772 
L 344.22 69.772 
" style="fill: none; stroke: #ff0000; stroke-width: 3; stroke-linecap: square"/>
    </g>
    <g id="text_16">
     <!-- $|0\rangle\langle 0|\times |\psi\rangle$ -->
     <g transform="translate(352.22 73.272) scale(0.1 -0.1)">
      <defs>
       <path id="DejaVuSans-27e8" d="M 572 2006 
L 1453 4856 
L 1984 4856 
L 1103 2006 
L 1984 -844 
L 1453 -844 
L 572 2006 
z
" transform="scale(0.015625)"/>
       <path id="DejaVuSans-d7" d="M 4488 3438 
L 3059 2003 
L 4488 575 
L 4116 197 
L 2681 1631 
L 1247 197 
L 878 575 
L 2303 2003 
L 878 3438 
L 1247 3816 
L 2681 2381 
L 4116 3816 
L 4488 3438 
z
" transform="scale(0.015625)"/>
      </defs>
      <use xlink:href="#DejaVuSans-7c" transform="translate(0 0.578125)"/>
      <use xlink:href="#DejaVuSans-30" transform="translate(33.691406 0.578125)"/>
      <use xlink:href="#DejaVuSans-27e9" transform="translate(97.314453 0.578125)"/>
      <use xlink:href="#DejaVuSans-27e8" transform="translate(136.328125 0.578125)"/>
      <use xlink:href="#DejaVuSans-30" transform="translate(175.341797 0.578125)"/>
      <use xlink:href="#DejaVuSans-7c" transform="translate(238.964844 0.578125)"/>
      <use xlink:href="#DejaVuSans-d7" transform="translate(292.138672 0.578125)"/>
      <use xlink:href="#DejaVuSans-7c" transform="translate(395.410156 0.578125)"/>
      <use xlink:href="#DejaVuSans-Oblique-3c8" transform="translate(429.101562 0.578125)"/>
      <use xlink:href="#DejaVuSans-27e9" transform="translate(495.068359 0.578125)"/>
     </g>
    </g>
    <g id="line2d_18">
     <path d="M 324.22 84.872 
L 334.22 84.872 
L 344.22 84.872 
" style="fill: none; stroke: #0000ff; stroke-width: 3; stroke-linecap: square"/>
    </g>
    <g id="text_17">
     <!-- $|1\rangle\langle 1|\times |\psi\rangle$ -->
     <g transform="translate(352.22 88.372) scale(0.1 -0.1)">
      <use xlink:href="#DejaVuSans-7c" transform="translate(0 0.578125)"/>
      <use xlink:href="#DejaVuSans-31" transform="translate(33.691406 0.578125)"/>
      <use xlink:href="#DejaVuSans-27e9" transform="translate(97.314453 0.578125)"/>
      <use xlink:href="#DejaVuSans-27e8" transform="translate(136.328125 0.578125)"/>
      <use xlink:href="#DejaVuSans-31" transform="translate(175.341797 0.578125)"/>
      <use xlink:href="#DejaVuSans-7c" transform="translate(238.964844 0.578125)"/>
      <use xlink:href="#DejaVuSans-d7" transform="translate(292.138672 0.578125)"/>
      <use xlink:href="#DejaVuSans-7c" transform="translate(395.410156 0.578125)"/>
      <use xlink:href="#DejaVuSans-Oblique-3c8" transform="translate(429.101562 0.578125)"/>
      <use xlink:href="#DejaVuSans-27e9" transform="translate(495.068359 0.578125)"/>
     </g>
    </g>
   </g>
   <g id="line2d_19">
    <path d="M 57.6 307.584 
L 61.207273 307.584 
L 64.814545 307.584 
L 68.421818 307.584 
L 72.029091 307.584 
L 75.636364 307.584 
L 79.243636 307.584 
L 82.850909 307.584 
L 86.458182 307.584 
L 90.065455 307.584 
L 93.672727 307.584 
L 97.28 307.584 
L 100.887273 307.584 
L 104.494545 307.584 
L 108.101818 307.584 
L 111.709091 307.584 
L 115.316364 307.584 
L 118.923636 307.584 
L 122.530909 307.584 
L 126.138182 307.584 
L 129.745455 307.584 
L 133.352727 307.584 
L 136.96 307.584 
L 140.567273 307.584 
L 144.174545 307.584 
L 147.781818 307.584 
L 151.389091 307.584 
L 154.996364 307.584 
L 158.603636 307.584 
L 162.210909 307.584 
L 165.818182 307.584 
L 169.425455 307.584 
L 173.032727 307.584 
L 176.64 307.584 
L 180.247273 307.584 
L 183.854545 307.584 
L 187.461818 307.584 
L 191.069091 307.584 
L 194.676364 307.584 
L 198.283636 307.584 
L 201.890909 307.584 
L 205.498182 307.584 
L 209.105455 307.584 
L 212.712727 307.584 
L 216.32 307.584 
L 219.927273 307.584 
L 223.534545 307.584 
L 227.141818 307.584 
L 230.749091 307.584 
L 234.356364 307.584 
L 237.963636 307.584 
L 241.570909 307.584 
L 245.178182 307.584 
L 248.785455 307.584 
L 252.392727 307.584 
L 256 307.584 
L 259.607273 307.584 
L 263.214545 307.584 
L 266.821818 307.584 
L 270.429091 307.584 
L 274.036364 307.584 
L 277.643636 307.584 
L 281.250909 307.584 
L 284.858182 307.584 
L 288.465455 307.584 
L 292.072727 307.584 
L 295.68 307.584 
L 299.287273 307.584 
L 302.894545 307.584 
L 306.501818 307.584 
" style="fill: none; stroke: #ff0000; stroke-width: 3; stroke-linecap: square"/>
   </g>
   <g id="line2d_20">
    <path d="M 57.6 307.584 
L 57.6 304.896 
L 57.6 302.208 
L 57.6 299.52 
L 57.6 296.832 
L 57.6 294.144 
L 57.6 291.456 
L 57.6 288.768 
L 57.6 286.08 
L 57.6 283.392 
L 57.6 280.704 
L 57.6 278.016 
L 57.6 275.328 
L 57.6 272.64 
L 57.6 269.952 
L 57.6 267.264 
L 57.6 264.576 
L 57.6 261.888 
L 57.6 259.2 
L 57.6 256.512 
L 57.6 253.824 
L 57.6 251.136 
L 57.6 248.448 
L 57.6 245.76 
L 57.6 243.072 
L 57.6 240.384 
L 57.6 237.696 
L 57.6 235.008 
L 57.6 232.32 
L 57.6 229.632 
L 57.6 226.944 
L 57.6 224.256 
L 57.6 221.568 
L 57.6 218.88 
L 57.6 216.192 
L 57.6 213.504 
L 57.6 210.816 
L 57.6 208.128 
L 57.6 205.44 
L 57.6 202.752 
L 57.6 200.064 
L 57.6 197.376 
L 57.6 194.688 
L 57.6 192 
L 57.6 189.312 
L 57.6 186.624 
L 57.6 183.936 
L 57.6 181.248 
L 57.6 178.56 
L 57.6 175.872 
L 57.6 173.184 
L 57.6 170.496 
L 57.6 167.808 
L 57.6 165.12 
L 57.6 162.432 
L 57.6 159.744 
L 57.6 157.056 
L 57.6 154.368 
L 57.6 151.68 
L 57.6 148.992 
L 57.6 146.304 
L 57.6 143.616 
L 57.6 140.928 
L 57.6 138.24 
L 57.6 135.552 
L 57.6 132.864 
L 57.6 130.176 
L 57.6 127.488 
L 57.6 124.8 
L 57.6 122.112 
" style="fill: none; stroke: #0000ff; stroke-width: 3; stroke-linecap: square"/>
   </g>
  </g>
 </g>
 <defs>
  <clipPath id="p898dc3440b">
   <rect x="57.6" y="41.472" width="357.12" height="266.112"/>
  </clipPath>
 </defs>
</svg>
